<svg xmlns="http://www.w3.org/2000/svg" viewBox="0 0 200 200">
<rect width="200" height="200" fill="#120a02" rx="12"/>
<ellipse cx="100" cy="167" rx="70" ry="9" fill="#000" opacity=".35"/>
<circle cx="100" cy="108" r="76" fill="#e8e2cc" stroke="#ccc5aa" stroke-width="3"/>
<circle cx="100" cy="108" r="66" fill="#f5f0e0"/>
<!-- pap mound (compact, left) -->
<ellipse cx="60" cy="122" rx="20" ry="12" fill="#dfd7b6"/>
<ellipse cx="60" cy="115" rx="14" ry="11" fill="#ebe6ce"/>
<ellipse cx="60" cy="108" rx="9" ry="8" fill="#f8f5e8"/>
<!-- t-bone steak (top center) -->
<ellipse cx="112" cy="96" rx="22" ry="18" fill="#7a3010"/>
<ellipse cx="111" cy="94" rx="17" ry="14" fill="#9e4220"/>
<rect x="108" y="76" width="4.5" height="40" rx="2.2" fill="#ede0c0" stroke="#d4caa8" stroke-width="1"/>
<line x1="100" y1="89" x2="106" y2="105" stroke="#5a2008" stroke-width="1.5" stroke-linecap="round" opacity=".6"/>
<line x1="106" y1="87" x2="112" y2="103" stroke="#5a2008" stroke-width="1.5" stroke-linecap="round" opacity=".6"/>
<!-- chicken drumstick (top right) -->
<g transform="rotate(-30 130 94)">
  <ellipse cx="130" cy="100" rx="12" ry="17" fill="#c08020"/>
  <ellipse cx="130" cy="98" rx="8.5" ry="13" fill="#d4982e"/>
  <rect x="126.5" y="80" width="6" height="14" rx="3" fill="#f0ead8" stroke="#d8d0b8" stroke-width="1"/>
  <circle cx="129.5" cy="79" r="4.5" fill="#f0ead8" stroke="#d8d0b8" stroke-width="1"/>
</g>
<!-- wors coil (bottom) -->
<path d="M84 136 C90 130 100 131 104 137 C108 143 104 150 98 152 C92 154 84 150 83 144 C82 138 88 133 94 135" fill="none" stroke="#7a5010" stroke-width="7" stroke-linecap="round"/>
<circle cx="84.5" cy="136.5" r="3" fill="#7a5010"/>
<!-- gravy pool -->
<ellipse cx="99" cy="130" rx="38" ry="10" fill="#3a1a06" opacity=".3"/>
<!-- steam -->
<path d="M80 52 C78 45 80 38 78 31" fill="none" stroke="#888" stroke-width="2.5" stroke-linecap="round"/>
<path d="M100 49 C98 42 100 35 98 28" fill="none" stroke="#888" stroke-width="2.5" stroke-linecap="round"/>
<path d="M120 52 C118 45 120 38 118 31" fill="none" stroke="#888" stroke-width="2.5" stroke-linecap="round"/>
</svg>
